<svg id="logo"
    xmlns="http://www.w3.org/2000/svg" viewBox="0 0 612.9521 159.7725">
    <defs>
        <style>
            #leomessi path {
                fill: #000000;
            }

            #space path {
                fill: #000000;
            }
        </style>
    </defs>
    <title>brand</title>
    <g id="leomessi">
        <path id="leomessi__l" d="M0,12.24H23.76V77.4H63.84V96.24H0Z"/>
        <path id="leomessi__e" d="M137.9985,69.4805h-47.28a13.2312,13.2312,0,0,0,5.58,7.74,18.63,18.63,0,0,0,10.38,2.7,22.4542,22.4542,0,0,0,8.1-1.32,23.8955,23.8955,0,0,0,6.9-4.32l12,12.48q-9.4812,10.56-27.72,10.56A44.2408,44.2408,0,0,1,85.9185,93a31.8122,31.8122,0,0,1-18.12-29.3994,32.1045,32.1045,0,0,1,17.4-29.16,38.625,38.625,0,0,1,18.36-4.32,38.4143,38.4143,0,0,1,17.64,4.02,30.5976,30.5976,0,0,1,12.54,11.64,34.1828,34.1828,0,0,1,4.62,18.0605Q138.3584,64.0826,137.9985,69.4805Zm-43.14-20.16a13.5493,13.5493,0,0,0-4.5,8.16h26.64a13.5644,13.5644,0,0,0-4.5-8.16,14.4655,14.4655,0,0,0-17.64,0Z"/>
        <path id="leomessi__o" d="M162.7183,93a32.1452,32.1452,0,0,1-17.88-29.3994,32.049,32.049,0,0,1,17.82-29.22,44.1814,44.1814,0,0,1,37.86,0,31.92,31.92,0,0,1,13.08,11.88,32.4574,32.4574,0,0,1,4.68,17.34A32.76,32.76,0,0,1,213.5981,81a32.187,32.187,0,0,1-13.08,12,43.5,43.5,0,0,1-37.8,0Zm28.68-17.9395q3.8394-4.14,3.84-11.46,0-7.2-3.84-11.28a13.9052,13.9052,0,0,0-19.68,0q-3.8424,4.081-3.84,11.28,0,7.3212,3.84,11.46a13.7641,13.7641,0,0,0,19.68,0Z"/>
        <path id="leomessi__m" d="M337.6763,12.24l-16.5606,84h-21.96l8.6406-44.2793-27.96,36h-10.44l-15.24-36-8.88,44.2793h-21.84l16.8-84h19.32l19.68,48.6006L317.396,12.24Z"/>
        <path id="leomessi__e-2" data-name="leomessi__e" d="M374.396,30.6006l-2.7607,14.16h37.32l-3.48,17.76h-37.44l-3,15.36h44.04l-3.84,18.3593h-67.32l16.8-84h65.76l-3.7207,18.36Z"/>
        <path id="leomessi__s-1" d="M430.0752,95.4a51.04,51.04,0,0,1-15.24-6.48L424.1943,71.16a51.8809,51.8809,0,0,0,13.5606,6.1806,51.19,51.19,0,0,0,14.3994,2.1q6.8408,0,10.62-1.98T466.5547,72q0-2.997-3.42-4.68a62.314,62.314,0,0,0-10.62-3.6,111.1779,111.1779,0,0,1-13.5595-4.38,24.1957,24.1957,0,0,1-9.3008-6.78q-3.9009-4.5585-3.8994-12a26.1508,26.1508,0,0,1,4.92-15.78,31.5158,31.5158,0,0,1,14.04-10.5,56.34,56.34,0,0,1,21.36-3.72,72.3,72.3,0,0,1,16.8,1.86,45.6538,45.6538,0,0,1,13.44,5.34l-8.64,17.64a39.6405,39.6405,0,0,0-10.86-4.74,46.082,46.082,0,0,0-12.18-1.62q-7.0826,0-11.1,2.28-4.0225,2.2808-4.0206,5.88,0,3.1216,3.4805,4.8a63.743,63.743,0,0,0,10.8,3.6006,104.3318,104.3318,0,0,1,13.5,4.2,23.8036,23.8036,0,0,1,9.18,6.6q3.8394,4.4414,3.84,11.64a25.7577,25.7577,0,0,1-4.98,15.66,31.8828,31.8828,0,0,1-14.16,10.5,56.4376,56.4376,0,0,1-21.3,3.7207A75.8719,75.8719,0,0,1,430.0752,95.4Z"/>
        <path id="leomessi__s-2" d="M507.7139,95.4a51.0407,51.0407,0,0,1-15.24-6.48L501.833,71.16a51.8794,51.8794,0,0,0,13.5606,6.1806,51.19,51.19,0,0,0,14.3994,2.1q6.8408,0,10.62-1.98T544.1934,72q0-2.997-3.42-4.68a62.3122,62.3122,0,0,0-10.62-3.6,111.1779,111.1779,0,0,1-13.5595-4.38,24.1957,24.1957,0,0,1-9.3008-6.78q-3.9009-4.5585-3.8994-12a26.15,26.15,0,0,1,4.92-15.78,31.5158,31.5158,0,0,1,14.04-10.5,56.34,56.34,0,0,1,21.36-3.72,72.3,72.3,0,0,1,16.8,1.86,45.652,45.652,0,0,1,13.4394,5.34l-8.64,17.64a39.6411,39.6411,0,0,0-10.86-4.74,46.0809,46.0809,0,0,0-12.18-1.62q-7.0824,0-11.1,2.28-4.0224,2.2808-4.0205,5.88,0,3.1216,3.4805,4.8a63.7367,63.7367,0,0,0,10.8,3.6006,104.3417,104.3417,0,0,1,13.5,4.2,23.8036,23.8036,0,0,1,9.18,6.6q3.8394,4.4414,3.84,11.64a25.757,25.757,0,0,1-4.9795,15.66,31.8825,31.8825,0,0,1-14.16,10.5,56.4376,56.4376,0,0,1-21.3,3.7207A75.8714,75.8714,0,0,1,507.7139,95.4Z"/>
        <path id="leomessi__i" d="M585.7119,31.2h22.6807l-12.961,65.04h-22.68Zm6.42-10.4395a9.7554,9.7554,0,0,1-3.0595-7.44,12.9925,12.9925,0,0,1,3.72-9.6,12.5481,12.5481,0,0,1,9.24-3.72,10.96,10.96,0,0,1,7.92,2.88,10.0048,10.0048,0,0,1,3,7.56,12.9042,12.9042,0,0,1-3.66,9.54,12.4494,12.4494,0,0,1-9.18,3.66A11.17,11.17,0,0,1,592.1318,20.7607Z"/>
    </g>
    <g id="space">
        <path id="space__s" d="M387.7471,145.501a22.3225,22.3225,0,0,1-6.9268-3.0088l3.3584-6.6455a21.5754,21.5754,0,0,0,6.0518,2.6933,25.1133,25.1133,0,0,0,6.9609,1.0147q7.8341,0,7.8359-4.1279a2.7584,2.7584,0,0,0-1.9941-2.7286,34.4722,34.4722,0,0,0-6.4014-1.47,51.6792,51.6792,0,0,1-7.52-1.6084,11.5206,11.5206,0,0,1-5.0371-3.1836,8.8817,8.8817,0,0,1-2.1338-6.331,9.9515,9.9515,0,0,1,4.4424-8.5q4.4415-3.1832,11.9981-3.1836a34.6313,34.6313,0,0,1,7.6953.875,21.6,21.6,0,0,1,6.2968,2.3437l-3.3584,6.6455a20.7289,20.7289,0,0,0-10.7041-2.7978,11.8627,11.8627,0,0,0-5.8417,1.1543,3.4433,3.4433,0,0,0-1.9932,3.0429,3.0382,3.0382,0,0,0,2.1338,2.9737,33.88,33.88,0,0,0,6.61,1.6435,51.2327,51.2327,0,0,1,7.3467,1.6094,11.5088,11.5088,0,0,1,4.9316,3.0781,8.5853,8.5853,0,0,1,2.0635,6.1563,9.7422,9.7422,0,0,1-4.5469,8.3955q-4.5483,3.1479-12.3828,3.1484A33.473,33.473,0,0,1,387.7471,145.501Z"/>
        <path id="space__p" d="M451.585,110.8008a17.1643,17.1643,0,0,1,6.7509,6.7158,21.7283,21.7283,0,0,1,0,20.0439,17.0884,17.0884,0,0,1-6.7509,6.751,19.8261,19.8261,0,0,1-9.7588,2.3789q-7.5556,0-11.9639-5.0371v18.1192h-8.7451V108.8418h8.3252v4.8975a13.5265,13.5265,0,0,1,5.3525-3.9883,18.0947,18.0947,0,0,1,7.0313-1.3291A19.8369,19.8369,0,0,1,451.585,110.8008Zm-2.7979,25.1855a13.0655,13.0655,0,0,0,0-16.9306,10.5746,10.5746,0,0,0-7.94-3.2178,11.2454,11.2454,0,0,0-5.667,1.4346,10.371,10.371,0,0,0-3.9883,4.0918,13.6386,13.6386,0,0,0,0,12.3134,10.3672,10.3672,0,0,0,3.9883,4.0928,11.2448,11.2448,0,0,0,5.667,1.4336A10.5712,10.5712,0,0,0,448.7871,135.9863Z"/>
        <path id="space__a" d="M495.5205,112.375q4.3711,3.9536,4.3721,11.9277V146.2h-8.2549v-4.5469a10.1758,10.1758,0,0,1-4.583,3.7422,17.9035,17.9035,0,0,1-7.1709,1.2949,17.5868,17.5868,0,0,1-7.3457-1.4345,11.3378,11.3378,0,0,1-4.8623-3.9873,10.1123,10.1123,0,0,1-1.7139-5.7725,9.891,9.891,0,0,1,3.7432-8.08q3.7412-3.0425,11.7881-3.043h9.6543v-.5595a7.6576,7.6576,0,0,0-2.3438-6.0166q-2.3437-2.0991-6.9609-2.0987a20.085,20.085,0,0,0-6.1914.98,15.2263,15.2263,0,0,0-5.1416,2.7276l-3.4287-6.3662a21.2444,21.2444,0,0,1,7.0664-3.4278,31.4357,31.4357,0,0,1,8.7451-1.1894Q491.147,108.4219,495.5205,112.375Zm-7.9756,26.4443a8.1794,8.1794,0,0,0,3.6026-4.3017V130.18H482.123q-7.5557,0-7.5556,4.9668a4.4575,4.4575,0,0,0,1.8887,3.7783,8.652,8.652,0,0,0,5.247,1.3994A11.2854,11.2854,0,0,0,487.5449,138.8193Z"/>
        <path id="space__c" d="M518.1514,144.2412a17.9676,17.9676,0,0,1-7.2061-6.82,20.1539,20.1539,0,0,1,0-19.7637,18.1041,18.1041,0,0,1,7.1709-6.7861,21.8382,21.8382,0,0,1,10.459-2.4492,20.1562,20.1562,0,0,1,9.6894,2.2392,14.5347,14.5347,0,0,1,6.2618,6.4356l-6.7168,3.9179a10.688,10.688,0,0,0-4.0225-3.8828,11.7425,11.7425,0,0,0-13.3975,1.8887,12.89,12.89,0,0,0-.0351,17.001,11.7972,11.7972,0,0,0,13.4326,1.8887,10.6582,10.6582,0,0,0,4.0225-3.8829l6.7168,3.918a15.14,15.14,0,0,1-6.3321,6.4707,19.7385,19.7385,0,0,1-9.6191,2.2744A21.8824,21.8824,0,0,1,518.1514,144.2412Z"/>
        <path id="space__e" d="M586.502,130.3193H557.1885a10.1569,10.1569,0,0,0,4.0224,6.5411,13.1858,13.1858,0,0,0,8.0811,2.414,13.6162,13.6162,0,0,0,10.1435-4.0576l4.6875,5.3867a15.7861,15.7861,0,0,1-6.3662,4.5479,25.2244,25.2244,0,0,1-19.5185-.91,17.6215,17.6215,0,0,1-7.2412-6.82,19.2551,19.2551,0,0,1-2.5537-9.8994,19.5554,19.5554,0,0,1,2.4834-9.83,17.6206,17.6206,0,0,1,6.8916-6.82,20.1007,20.1007,0,0,1,9.9345-2.4492,19.5968,19.5968,0,0,1,9.7588,2.414,17.0872,17.0872,0,0,1,6.7168,6.7862,20.5857,20.5857,0,0,1,2.4131,10.1093Q586.6416,128.6411,586.502,130.3193Zm-25.8506-12.4179a10.4458,10.4458,0,0,0-3.5323,6.6113h21.1973a10.3152,10.3152,0,0,0-3.4277-6.5762,10.43,10.43,0,0,0-7.1358-2.5185A10.5564,10.5564,0,0,0,560.6514,117.9014Z"/>
    </g>
</svg>